# xmcd
# 
# Track frame offsets:
#     150
#     21962
#     38582
#     56410
#     76450
#     95968
#     118648
#     135561
#     156462
#     168855
#     191496
#     220141
# 
# Disc length: 4440
# 
# Revision: 1
# Processed by: cddbd v1.5.2PL0 Copyright (c) Steve Scherf et al.
# Submitted via: fre:ac v1.1beta1pre5
# 
DISCID=a011560c
DTITLE=Athlete - Tourist
DYEAR=2005
DGENRE=Alternative
TTITLE0=Chances
TTITLE1=Half Light
TTITLE2=Tourist
TTITLE3=Trading Air
TTITLE4=Wires
TTITLE5=If I Found Out
TTITLE6=Yesterday Threw Everything at Me
TTITLE7=Street Map
TTITLE8=Modern Mafia
TTITLE9=Twenty Four Hours
TTITLE10=I Love
TTITLE11=Lay Your Head
EXTD=
EXTT0=
EXTT1=
EXTT2=
EXTT3=
EXTT4=
EXTT5=
EXTT6=
EXTT7=
EXTT8=
EXTT9=
EXTT10=
EXTT11=
PLAYORDER=
